<svg width="20" height="20" viewBox="0 0 20 20" fill="none" xmlns="http://www.w3.org/2000/svg">
<path d="M18.5027 14.8422L14.6568 12.333C14.1687 12.0171 13.5145 12.121 13.1537 12.5718L12.0334 13.981C11.8894 14.1667 11.6277 14.2206 11.4194 14.1074L11.2063 13.9925C10.4999 13.6158 9.62093 13.1468 7.84994 11.4135C6.07896 9.68029 5.59862 8.81969 5.21356 8.12983L5.09672 7.92134C4.97942 7.71761 5.03345 7.46048 5.22336 7.3185L6.6628 6.22281C7.12336 5.86976 7.22975 5.22989 6.90725 4.75225L4.34245 0.989609C4.01194 0.503224 3.34885 0.357214 2.83719 0.658128L1.22896 1.60327C0.723639 1.89391 0.352908 2.36461 0.1945 2.91674C-0.384621 4.98114 0.0510464 8.54397 5.41561 13.793C9.68301 17.9676 12.8599 19.0903 15.0434 19.0903C15.546 19.0924 16.0465 19.0284 16.5317 18.9001C17.0961 18.7453 17.5773 18.3825 17.8742 17.888L18.8413 16.3156C19.1493 15.8149 19.0001 15.1658 18.5027 14.8422ZM18.2956 15.9977L17.3308 17.5711C17.1177 17.928 16.7716 18.1905 16.3651 18.3034C14.4171 18.8267 11.0138 18.3933 5.86363 13.3546C0.713435 8.31599 0.270494 4.98673 0.805311 3.08065C0.920934 2.68248 1.18951 2.34345 1.55479 2.13456L3.16302 1.19065C3.38503 1.05996 3.67283 1.12331 3.81624 1.33438L5.20948 3.3808L6.37886 5.09669C6.5189 5.30387 6.47288 5.58155 6.2731 5.73486L4.83333 6.83055C4.39518 7.15833 4.27006 7.75141 4.53982 8.22211L4.65415 8.42533C5.05883 9.15146 5.56196 10.0548 7.3988 11.8516C9.23565 13.6483 10.1587 14.1406 10.9005 14.5364L11.1086 14.6486C11.5896 14.9125 12.1959 14.7901 12.5309 14.3614L13.6509 12.9528C13.8076 12.7575 14.0913 12.7125 14.3032 12.8494L18.1488 15.3586C18.3647 15.4988 18.4294 15.7805 18.2956 15.9977Z" fill="#ADADAD"/>
<path d="M10.7668 3.60035C13.7383 3.60358 16.1464 5.95953 16.1497 8.86669C16.1497 9.03779 16.2915 9.17647 16.4663 9.17647C16.6412 9.17647 16.783 9.03779 16.783 8.86669C16.7793 5.61748 14.0879 2.98437 10.7668 2.98081C10.5919 2.98081 10.4502 3.11949 10.4502 3.29058C10.4502 3.46168 10.5919 3.60035 10.7668 3.60035Z" fill="#ADADAD"/>
<path d="M10.7668 5.45906C12.6895 5.46127 14.2477 6.98563 14.2499 8.86669C14.2499 9.03779 14.3917 9.17646 14.5665 9.17646C14.7414 9.17646 14.8832 9.03779 14.8832 8.86669C14.8805 6.64358 13.0391 4.84205 10.7668 4.83951C10.5919 4.83951 10.4502 4.97819 10.4502 5.14928C10.4502 5.32038 10.5919 5.45906 10.7668 5.45906Z" fill="#ADADAD"/>
<path d="M10.7668 7.31776C11.6407 7.31878 12.3489 8.01165 12.35 8.86669C12.35 9.03779 12.4918 9.17646 12.6666 9.17646C12.8415 9.17646 12.9833 9.03779 12.9833 8.86669C12.9819 7.66964 11.9904 6.69956 10.7668 6.69822C10.5919 6.69822 10.4502 6.83689 10.4502 7.00799C10.4502 7.17908 10.5919 7.31776 10.7668 7.31776Z" fill="#ADADAD"/>
</svg>
