<svg width="25" height="25" viewBox="0 0 25 25" fill="none" xmlns="http://www.w3.org/2000/svg">
<path d="M24.3552 23.8882L22.3514 6.83391C22.318 6.55933 22.0508 6.34577 21.7502 6.34577H18.0432V5.30848C18.0432 2.37966 15.4382 0 12.2321 0C9.02592 0 6.42095 2.37966 6.42095 5.30848V6.34577H2.61367C2.31309 6.34577 2.04592 6.55933 2.01252 6.83391L0.0086876 23.8882C-0.0247096 24.0407 0.0420847 24.1933 0.142276 24.3153C0.242468 24.4373 0.409454 24.4983 0.57644 24.4983H23.7875C23.9545 24.4983 24.1214 24.4373 24.2216 24.3153C24.3218 24.1933 24.3886 24.0407 24.3552 23.8882ZM17.442 9.42713C17.7426 9.42713 17.9764 9.64069 17.9764 9.91527C17.9764 10.1898 17.7426 10.4034 17.442 10.4034C17.1414 10.4034 16.9077 10.1898 16.9077 9.91527C16.9077 9.64069 17.1414 9.42713 17.442 9.42713ZM7.62324 5.30848C7.62324 2.98984 9.69387 1.09831 12.2321 1.09831C14.7702 1.09831 16.8409 2.98984 16.8409 5.30848V6.34577H7.62324V5.30848ZM7.0221 9.42713C7.32267 9.42713 7.55645 9.64069 7.55645 9.91527C7.55645 10.1898 7.32267 10.4034 7.0221 10.4034C6.72152 10.4034 6.48774 10.1898 6.48774 9.91527C6.48774 9.64069 6.72152 9.42713 7.0221 9.42713ZM1.27778 23.3695L3.14802 7.41357H6.42095V8.42035C5.753 8.63391 5.28544 9.21357 5.28544 9.88476C5.28544 10.739 6.05358 11.4407 6.9887 11.4407C7.92382 11.4407 8.69195 10.739 8.69195 9.88476C8.69195 9.21357 8.22439 8.63391 7.55645 8.42035V7.41357H16.7741V8.42035C16.1061 8.63391 15.6386 9.21357 15.6386 9.88476C15.6386 10.739 16.4067 11.4407 17.3418 11.4407C18.2769 11.4407 19.0451 10.739 19.0451 9.88476C19.0451 9.21357 18.5775 8.63391 17.9096 8.42035V7.41357H21.3161L23.1863 23.3695H1.27778Z" fill="#ADADAD"/>
</svg>
