<svg width="17" height="15" viewBox="0 0 17 15" fill="none" xmlns="http://www.w3.org/2000/svg">
<path d="M15.748 0H1.19684C0.93371 0 0.681359 0.104441 0.495299 0.290347C0.309239 0.476253 0.204712 0.728395 0.204712 0.991306V11.5652C0.204712 11.8281 0.309239 12.0803 0.495299 12.2662C0.681359 12.4521 0.93371 12.5565 1.19684 12.5565H3.33487L4.66928 14.5586C4.75988 14.6944 4.88263 14.8057 5.02663 14.8827C5.17062 14.9597 5.33141 15 5.49473 15C5.65804 15 5.81884 14.9597 5.96283 14.8827C6.10683 14.8057 6.22957 14.6944 6.32018 14.5586L7.65723 12.5565H15.748C16.0111 12.5565 16.2635 12.4521 16.4496 12.2662C16.6356 12.0803 16.7401 11.8281 16.7401 11.5652V0.991306C16.7401 0.728395 16.6356 0.476253 16.4496 0.290347C16.2635 0.104441 16.0111 0 15.748 0V0ZM16.0787 11.5652C16.0787 11.6529 16.0439 11.7369 15.9819 11.7989C15.9198 11.8609 15.8357 11.8957 15.748 11.8957H7.4803C7.42587 11.8957 7.37228 11.9091 7.32428 11.9347C7.27628 11.9604 7.23536 11.9975 7.20515 12.0427L5.7712 14.1905C5.73971 14.234 5.69836 14.2694 5.65053 14.2938C5.6027 14.3182 5.54976 14.3309 5.49605 14.3309C5.44234 14.3309 5.3894 14.3182 5.34157 14.2938C5.29374 14.2694 5.25239 14.234 5.2209 14.1905L3.78695 12.0427C3.75674 11.9975 3.71582 11.9604 3.66782 11.9347C3.61982 11.9091 3.56623 11.8957 3.5118 11.8957H1.19684C1.10913 11.8957 1.02501 11.8609 0.962992 11.7989C0.900972 11.7369 0.866129 11.6529 0.866129 11.5652V0.991306C0.866129 0.903669 0.900972 0.819621 0.962992 0.757653C1.02501 0.695684 1.10913 0.66087 1.19684 0.66087H15.748C15.8357 0.66087 15.9198 0.695684 15.9819 0.757653C16.0439 0.819621 16.0787 0.903669 16.0787 0.991306V11.5652Z" fill="#ADADAD"/>
<path d="M13.4556 4.01574H3.48934C3.40133 4.01574 3.31693 4.04684 3.2547 4.10222C3.19246 4.15759 3.1575 4.2327 3.1575 4.31101C3.1575 4.38932 3.19246 4.46443 3.2547 4.5198C3.31693 4.57518 3.40133 4.60629 3.48934 4.60629H13.4556C13.5436 4.60629 13.628 4.57518 13.6902 4.5198C13.7525 4.46443 13.7874 4.38932 13.7874 4.31101C13.7874 4.2327 13.7525 4.15759 13.6902 4.10222C13.628 4.04684 13.5436 4.01574 13.4556 4.01574Z" fill="#ADADAD"/>
<path d="M13.4556 5.9055H3.48934C3.40133 5.9055 3.31693 5.94283 3.2547 6.00928C3.19246 6.07573 3.1575 6.16586 3.1575 6.25983C3.1575 6.35381 3.19246 6.44393 3.2547 6.51038C3.31693 6.57683 3.40133 6.61416 3.48934 6.61416H13.4556C13.5436 6.61416 13.628 6.57683 13.6902 6.51038C13.7525 6.44393 13.7874 6.35381 13.7874 6.25983C13.7874 6.16586 13.7525 6.07573 13.6902 6.00928C13.628 5.94283 13.5436 5.9055 13.4556 5.9055Z" fill="#ADADAD"/>
<path d="M13.4561 8.03151H3.48884C3.40096 8.03151 3.31668 8.06262 3.25455 8.11799C3.19241 8.17337 3.1575 8.24847 3.1575 8.32678C3.1575 8.4051 3.19241 8.4802 3.25455 8.53558C3.31668 8.59095 3.40096 8.62206 3.48884 8.62206H13.4561C13.544 8.62206 13.6282 8.59095 13.6904 8.53558C13.7525 8.4802 13.7874 8.4051 13.7874 8.32678C13.7874 8.24847 13.7525 8.17337 13.6904 8.11799C13.6282 8.06262 13.544 8.03151 13.4561 8.03151Z" fill="#ADADAD"/>
</svg>
