<svg width="25" height="26" viewBox="0 0 25 26" fill="none" xmlns="http://www.w3.org/2000/svg">
<path d="M24.9645 13.227C24.9645 6.34446 19.3648 0.744682 12.4823 0.744682C5.59977 0.744682 0 6.34446 0 13.227C0 16.8622 1.56323 20.139 4.05152 22.4221L4.03972 22.4325L4.4446 22.7738C4.47092 22.7961 4.49952 22.8142 4.52584 22.836C4.74099 23.0144 4.96386 23.1837 5.19081 23.3476C5.26434 23.4007 5.33787 23.4538 5.41277 23.5055C5.65515 23.6726 5.90389 23.831 6.15807 23.9812C6.21345 24.0139 6.26928 24.0457 6.32511 24.0774C6.60335 24.2359 6.88749 24.3852 7.17844 24.5223C7.19977 24.5323 7.22156 24.5413 7.24289 24.5513C8.19109 24.9921 9.20329 25.3157 10.2618 25.5068C10.2895 25.5118 10.3172 25.5168 10.3453 25.5218C10.6739 25.5785 11.0062 25.6239 11.3425 25.6543C11.3834 25.6579 11.4242 25.6602 11.4655 25.6638C11.8005 25.6915 12.1391 25.7092 12.4823 25.7092C12.8222 25.7092 13.1577 25.6915 13.4908 25.6647C13.533 25.6611 13.5753 25.6588 13.6175 25.6552C13.9511 25.6248 14.2806 25.5808 14.6061 25.5249C14.6342 25.5199 14.6628 25.515 14.691 25.5095C15.7336 25.3225 16.7312 25.0061 17.6672 24.5767C17.7017 24.5609 17.7366 24.5459 17.7711 24.5295C18.0512 24.3979 18.3249 24.2558 18.5931 24.1047C18.6599 24.067 18.7261 24.0289 18.7924 23.9898C19.0366 23.846 19.2767 23.6957 19.51 23.5359C19.594 23.4788 19.6761 23.4184 19.7592 23.3585C19.9585 23.215 20.1541 23.0671 20.3443 22.9123C20.3865 22.8782 20.4319 22.8487 20.4732 22.8138L20.8885 22.467L20.8763 22.4566C23.3863 20.1725 24.9645 16.8809 24.9645 13.227ZM0.907801 13.227C0.907801 6.84465 6.09997 1.65248 12.4823 1.65248C18.8646 1.65248 24.0567 6.84465 24.0567 13.227C24.0567 16.6662 22.5475 19.7581 20.1582 21.8797C20.0247 21.7875 19.8904 21.7049 19.7529 21.6359L15.9097 19.7146C15.5647 19.5421 15.3505 19.1953 15.3505 18.8099V17.4677C15.4394 17.3579 15.5334 17.2335 15.6305 17.0969C16.128 16.3943 16.527 15.6127 16.8179 14.7716C17.393 14.4983 17.7643 13.9255 17.7643 13.2787V11.6696C17.7643 11.2761 17.62 10.8944 17.3617 10.5943V8.47597C17.3853 8.2404 17.4688 6.91092 16.507 5.8143C15.6705 4.85929 14.3165 4.37589 12.4823 4.37589C10.6481 4.37589 9.29407 4.85929 8.45753 5.81385C7.49572 6.91047 7.57923 8.23994 7.60284 8.47552V10.5939C7.34502 10.8939 7.20023 11.2756 7.20023 11.6692V13.2782C7.20023 13.778 7.42445 14.2441 7.80845 14.5587C8.17611 15.9989 8.93277 17.0892 9.21237 17.4587V18.7723C9.21237 19.1426 9.01038 19.4831 8.68494 19.661L5.09594 21.6187C4.98156 21.6809 4.86808 21.7535 4.75461 21.8347C2.39478 19.7141 0.907801 16.6412 0.907801 13.227ZM19.2722 22.5918C19.1133 22.7071 18.9517 22.8188 18.7879 22.9254C18.7125 22.9745 18.6376 23.0235 18.5609 23.0711C18.3467 23.2037 18.1288 23.3299 17.9064 23.4479C17.8574 23.4738 17.8079 23.4983 17.7584 23.5237C17.2473 23.7856 16.7185 24.0107 16.1752 24.1936C16.1561 24.2 16.1371 24.2068 16.1176 24.2132C15.833 24.3076 15.5447 24.3915 15.2533 24.4637C15.2524 24.4637 15.2515 24.4642 15.2506 24.4642C14.9565 24.5368 14.6587 24.5972 14.3591 24.6466C14.351 24.648 14.3428 24.6498 14.3346 24.6512C14.0528 24.697 13.7686 24.7302 13.4836 24.7551C13.4332 24.7597 13.3828 24.7628 13.332 24.7665C13.0501 24.7878 12.7669 24.8014 12.4823 24.8014C12.1945 24.8014 11.9076 24.7873 11.6221 24.766C11.5727 24.7624 11.5232 24.7592 11.4742 24.7547C11.1864 24.7292 10.9 24.6952 10.6163 24.6489C10.6036 24.6466 10.5909 24.6444 10.5782 24.6421C9.9781 24.5418 9.38757 24.3943 8.81248 24.2014C8.79478 24.1955 8.77662 24.1891 8.75892 24.1832C8.47342 24.0861 8.19109 23.9785 7.91376 23.8596C7.91194 23.8587 7.90967 23.8578 7.90786 23.8569C7.6455 23.7438 7.38814 23.6186 7.13396 23.4865C7.10082 23.4692 7.06723 23.4529 7.03455 23.4352C6.80261 23.3113 6.57566 23.1774 6.35189 23.0376C6.28562 22.9958 6.2198 22.9536 6.15444 22.9109C5.94837 22.7761 5.74502 22.6359 5.54712 22.4874C5.52669 22.472 5.50718 22.4557 5.48675 22.4402C5.50128 22.4321 5.5158 22.4239 5.53033 22.4157L9.11932 20.458C9.73662 20.1212 10.1202 19.4753 10.1202 18.7723L10.1197 17.1373L10.0153 17.0111C10.0053 16.9998 9.024 15.806 8.65316 14.1897L8.61186 14.0099L8.45708 13.9096C8.23875 13.7685 8.10803 13.5324 8.10803 13.2778V11.6687C8.10803 11.4576 8.19745 11.2611 8.36085 11.1136L8.51064 10.9783V8.4501L8.50655 8.39064C8.50519 8.37975 8.37129 7.28811 9.1402 6.41163C9.79654 5.6636 10.9213 5.28369 12.4823 5.28369C14.0373 5.28369 15.1585 5.66043 15.8166 6.40301C16.5846 7.27041 16.4589 8.38247 16.458 8.39155L16.4539 10.9792L16.6037 11.1145C16.7666 11.2616 16.8565 11.4586 16.8565 11.6696V13.2787C16.8565 13.6023 16.6364 13.896 16.3205 13.9936L16.0949 14.063L16.0222 14.2877C15.7544 15.1197 15.3732 15.8882 14.8893 16.5717C14.7704 16.7397 14.6546 16.8886 14.5552 17.0025L14.4427 17.131V18.8099C14.4427 19.5416 14.8494 20.1998 15.5039 20.5266L19.3471 22.4479C19.3716 22.4602 19.3956 22.4729 19.4197 22.4856C19.3711 22.5224 19.3212 22.5564 19.2722 22.5918Z" fill="#ADADAD"/>
</svg>
