<svg width="19" height="17" viewBox="0 0 19 17" fill="none" xmlns="http://www.w3.org/2000/svg">
<path d="M18.9573 12.1404C18.8255 11.6507 18.4228 11.2862 17.9302 11.2109V3.84906H18.5593C18.733 3.84906 18.8739 3.70544 18.8739 3.5283V0.320755C18.8739 0.143463 18.733 0 18.5593 0H4.71847C4.54475 0 4.40391 0.143463 4.40391 0.320755V3.5283C4.40391 3.70544 4.54475 3.84906 4.71847 3.84906H5.3476V10.2642H5.03304C4.25231 10.2623 3.48755 10.4905 2.83108 10.9213V9.30189C2.83108 9.12459 2.69024 8.98113 2.51652 8.98113H0.314565C0.140848 8.98113 0 9.12459 0 9.30189V16.6792C0 16.8564 0.140848 17 0.314565 17H2.51652C2.69024 17 2.83108 16.8564 2.83108 16.6792V15.06C3.48771 15.4905 4.25231 15.7187 5.03304 15.717H10.1982C10.556 15.7164 10.9122 15.6684 11.258 15.5745L18.0686 13.7141C18.7387 13.5279 19.1358 12.825 18.9573 12.1404V12.1404ZM5.03304 0.641509H18.2448V3.20755H5.03304V0.641509ZM5.97673 3.84906H17.3011V11.266L13.6502 12.2643C13.4999 11.8988 13.1931 11.6242 12.8182 11.5194L8.57972 10.3603C8.34103 10.2963 8.09528 10.2638 7.84845 10.2642H5.97673V3.84906ZM2.20195 16.3585H0.629129V9.62264H2.20195V16.3585ZM17.9053 13.0944L11.0959 14.9547C10.803 15.0344 10.5014 15.075 10.1982 15.0755H5.03304C4.2841 15.0772 3.55498 14.8294 2.95688 14.3697L2.83108 14.2736V11.7075L2.95688 11.6112C3.55498 11.1516 4.2841 10.9036 5.03304 10.9057H7.84845C8.0406 10.9055 8.23213 10.9309 8.41814 10.981L12.6552 12.1392C12.9056 12.2095 13.0888 12.4283 13.1174 12.6916C13.1208 12.7047 13.1249 12.7177 13.13 12.7304C13.1263 12.7442 13.1236 12.7581 13.1217 12.7724C13.122 12.8246 13.1151 12.8765 13.101 12.9267C13.0269 13.2062 12.7786 13.4006 12.4946 13.4011C12.4391 13.4015 12.3841 13.3943 12.3307 13.3799L9.65689 12.6488C9.54722 12.6156 9.42849 12.6457 9.34678 12.7274C9.26522 12.8092 9.23343 12.9296 9.26399 13.0421C9.29456 13.1544 9.38257 13.2412 9.49393 13.2683L12.1677 13.9997C12.2745 14.0283 12.3846 14.0427 12.4952 14.0426C13.0607 14.0423 13.5564 13.6565 13.7058 13.1002C13.7233 13.0358 13.7352 12.97 13.7415 12.9036L17.5763 11.8551C17.6036 11.848 17.6333 11.8408 17.6612 11.8361C17.9744 11.7949 18.2689 11.9968 18.3498 12.3079C18.3639 12.3621 18.371 12.418 18.3705 12.474C18.371 12.7644 18.1802 13.0188 17.9053 13.0944V13.0944Z" fill="#ADADAD"/>
</svg>
