<svg width="13" height="17" viewBox="0 0 13 17" fill="none" xmlns="http://www.w3.org/2000/svg">
<path d="M1.16631 2.79381C2.39301 1.01843 4.33713 0 6.49981 0C8.66249 0 10.6066 1.01843 11.8333 2.79381C13.054 4.5602 13.3358 6.79651 12.5888 8.77227C12.389 9.31182 12.0713 9.83602 11.647 10.3272L6.92754 15.8707C6.8208 15.9961 6.66442 16.0684 6.49981 16.0684C6.3352 16.0684 6.17882 15.9962 6.07208 15.8707L1.35399 10.3287C0.927735 9.8347 0.610509 9.31106 0.412352 8.77585C-0.336211 6.79651 -0.0543535 4.5602 1.16631 2.79381ZM1.46446 8.38236C1.61727 8.7953 1.86673 9.20357 2.20552 9.59628C2.20646 9.59722 2.2074 9.59816 2.20816 9.59929L6.49981 14.6401L10.7941 9.59612C11.1327 9.20376 11.3822 8.79552 11.5365 8.37862C12.1543 6.74463 11.9198 4.89563 10.9091 3.43281C9.89518 1.96531 8.28796 1.12366 6.49981 1.12366C4.71169 1.12366 3.10466 1.96528 2.09072 3.43281C1.07979 4.89563 0.845134 6.74463 1.46446 8.38236Z" fill="#ADADAD"/>
<path d="M6.49984 3.33353C8.23461 3.33353 9.64612 4.74486 9.64612 6.47981C9.64612 8.21476 8.23479 9.62608 6.49984 9.62608C4.76489 9.62608 3.35356 8.21476 3.35356 6.47981C3.35356 4.74505 4.76508 3.33353 6.49984 3.33353ZM6.49984 8.50239C7.61509 8.50239 8.52246 7.59503 8.52246 6.47978C8.52246 5.36453 7.61509 4.45716 6.49984 4.45716C5.38459 4.45716 4.47723 5.36453 4.47723 6.47978C4.47723 7.59503 5.38459 8.50239 6.49984 8.50239Z" fill="#ADADAD"/>
</svg>
