<svg width="20" height="20" viewBox="0 0 20 20" fill="none" xmlns="http://www.w3.org/2000/svg">
<path d="M19.8779 18.2946L14.0681 12.6105C15.17 11.2796 15.8334 9.5875 15.8334 7.74523C15.8334 3.47453 12.2819 0 7.91666 0C3.55142 0 0 3.47453 0 7.74523C0 12.0159 3.55146 15.4905 7.9167 15.4905C9.79975 15.4905 11.5293 14.8415 12.8897 13.7634L18.6996 19.4474C18.8624 19.6066 19.1261 19.6066 19.2889 19.4474L19.878 18.8711C20.0407 18.7119 20.0407 18.4537 19.8779 18.2946ZM7.9167 13.8599C4.47025 13.8599 1.66668 11.117 1.66668 7.74523C1.66668 4.37343 4.47025 1.63059 7.9167 1.63059C11.3632 1.63059 14.1667 4.37343 14.1667 7.74523C14.1667 11.117 11.3632 13.8599 7.9167 13.8599Z" fill="white"/>
</svg>
